<svg id="svg" xmlns="http://www.w3.org/2000/svg" xmlns:xlink="http://www.w3.org/1999/xlink" width="400" height="409" viewBox="0, 0, 400,409" version="1.1"><g id="svgg"><path id="path0" d="M-0.000 0.180 C -0.000 0.337,78.702 114.955,136.519 199.000 C 152.713 222.539,155.829 227.249,155.485 227.667 C 155.259 227.942,120.182 268.724,77.537 318.294 C 34.892 367.864,0.000 408.553,0.000 408.713 C 0.000 408.879,7.729 408.968,17.747 408.920 L 35.494 408.833 102.931 330.500 C 140.021 287.417,170.698 251.769,171.101 251.282 L 171.833 250.397 226.319 329.699 L 280.805 409.000 340.403 409.000 C 376.379 409.000,400.000 408.879,400.000 408.694 C 400.000 408.398,389.631 393.283,286.220 242.833 C 260.009 204.700,238.562 173.347,238.560 173.159 C 238.557 172.972,271.849 134.122,312.540 86.826 C 353.232 39.530,386.641 0.646,386.782 0.417 C 386.987 0.085,383.390 0.000,369.217 0.000 L 351.395 0.000 289.254 72.250 C 255.077 111.988,226.050 145.734,224.749 147.242 L 222.384 149.983 170.929 75.075 L 119.474 0.167 59.737 0.082 C 26.882 0.036,-0.000 0.080,-0.000 0.180 M137.077 76.833 C 156.301 104.333,189.342 151.583,210.501 181.833 C 231.661 212.083,271.989 269.758,300.119 310.000 L 351.265 383.167 324.563 383.252 C 303.477 383.319,297.778 383.249,297.464 382.919 C 297.246 382.688,277.153 354.000,252.813 319.167 C 228.473 284.333,199.481 242.858,188.387 227.000 C 177.292 211.142,141.895 160.517,109.725 114.500 C 77.556 68.483,50.569 29.895,49.754 28.748 L 48.272 26.663 75.198 26.748 L 102.125 26.833 137.077 76.833 " stroke="none" fill=" #F6F6FD" fill-rule="evenodd"></path></g></svg>
